# xmcd
#
# Track frame offsets:
#	150
#	11806
#	22852
#	33362
#	50141
#	63011
#	75270
#	89226
#	104592
#	115321
#	127543
#	139843
#	159698
#	172214
#	185696
#	204250
#	216952
#	231194
#	243392
#	256076
#	272541
#	286040
#	299316
#	317451
#	329596
#	340139
#
# Disc length: 4699 seconds
#
# Revision: 3
# Processed by: cddbd v1.4PL0 Copyright (c) Steve Scherf et al.
# Submitted via: EasyCDDAExtractor 5.0.6
#
DISCID=7612591a
DTITLE=Doris Day - On the Street where You live
DYEAR=2003
DGENRE=Blues
TTITLE0=Fly Me to the Moon (In Other Words)
TTITLE1=Dansero
TTITLE2=Summer has gone
TTITLE3=How Insensitive
TTITLE4=Slightly Out of Tune (Desifinado)
TTITLE5=Our Day Will Come
TTITLE6=Be True to Me (Savor a Mi)
TTITLE7=Be Mine Tonight (Noche de Ronda)
TTITLE8=Por Favor
TTITLE9=13 - More (Theme from the Film Mondo Cane)
TTITLE10=Can't Help Falling in Love
TTITLE11=Since I Fell for You
TTITLE12=Losing You
TTITLE13=(Now and Then There's) A Fool Such as I
TTITLE14=As Long as He Needs Me
TTITLE15=Funny
TTITLE16=Softly, as I Leave You
TTITLE17=Moonlight Lover
TTITLE18=A Whisper Away
TTITLE19=Makin' Whoopee
TTITLE20=On The Street Where You Live
TTITLE21=Quiet Nights Of Quiet Stars
TTITLE22=Remind Me
TTITLE23=On The Sunny Side Of The Street
TTITLE24=Sorry
TTITLE25=Cheek To Cheek
EXTD=
EXTT0=
EXTT1=
EXTT2=
EXTT3=
EXTT4=
EXTT5=
EXTT6=
EXTT7=
EXTT8=
EXTT9=
EXTT10=
EXTT11=
EXTT12=
EXTT13=
EXTT14=
EXTT15=
EXTT16=
EXTT17=
EXTT18=
EXTT19=
EXTT20=
EXTT21=
EXTT22=
EXTT23=
EXTT24=
EXTT25=
PLAYORDER=
